<svg fill="none" height="800" viewBox="0 0 1599 800" width="1599" xmlns="http://www.w3.org/2000/svg" xmlns:xlink="http://www.w3.org/1999/xlink"><filter id="a" color-interpolation-filters="sRGB" filterUnits="userSpaceOnUse" height="1256.54" width="887.832" x="48.9197" y="-419.08"><feFlood flood-opacity="0" result="BackgroundImageFix"/><feBlend in="SourceGraphic" in2="BackgroundImageFix" mode="normal" result="shape"/><feGaussianBlur result="effect1_foregroundBlur_0_3" stdDeviation="117"/></filter><radialGradient id="b" cx="0" cy="0" gradientTransform="matrix(0 592.566 -698.107 0 799 -.000071)" gradientUnits="userSpaceOnUse" r="1"><stop offset="0" stop-color="#fff"/><stop offset=".991144" stop-color="#fff" stop-opacity="0"/></radialGradient><linearGradient id="c" gradientUnits="userSpaceOnUse" x1="327.966" x2="327.966" y1="-153.024" y2="695.819"><stop offset="0" stop-color="#d9d9d9"/><stop offset="1" stop-color="#fff" stop-opacity="0"/></linearGradient><clipPath id="d"><path d="m0 0h1599v800h-1599z"/></clipPath><mask id="e" height="729" maskUnits="userSpaceOnUse" width="1458" x="70" y="0"><path d="m70 0h1458v729h-1458z" fill="url(#b)"/></mask><g clip-path="url(#d)"><g mask="url(#e)"><path clip-rule="evenodd" d="m130.294 382.269v-53.763h-60.294v-.912h60.294v-53.763h-60.294v-.912h60.294v-53.763h-60.294v-.912h60.294v-53.763h-60.294v-.912h60.294v-53.763h-60.294v-.912h60.294v-53.7635h-60.294v-.9112h60.294v-54.2193h.912v54.2193h59.838v-54.2193h.911v54.2193h59.839v-54.2193h.912v54.2193h59.839v-54.2193h.911v54.2193l59.838.0001v-54.2194h.911v54.2194h59.839v-54.2194h.912v54.2194h59.839v-54.2194h.911v54.2194h59.838v-54.2194h.911v54.2194h59.839v-54.2194h.912v54.2194h59.839v-54.2194h.911v54.2194h59.838v-54.2194h.911v54.2194h59.839v-54.2194h.912v54.2194h59.839v-54.2194h.911v54.2194h59.838v-54.2194h.911v54.2194h59.839v-54.2194h.912v54.2194h59.844v-54.2194h.91v54.2194h59.83v-54.2194h.91v54.2194h59.84v-54.2194h.92v54.2194h59.84v-54.2194h.91v54.2194h59.83v-54.2194h.91v54.2194h59.84v-54.2194h.92v54.2194h59.84v-54.2194h.91v54.2194h59.83v-54.2194h.91v54.2194h60.3v.9112h-60.3v53.7634h60.3v.912h-60.3v53.763h60.3v.912h-60.3v53.763h60.3v.912h-60.3v53.763h60.3v.912h-60.3v53.763h60.3v.912h-60.3v53.763h60.3v.912h-60.3v53.763h60.3v.912h-60.3v53.763h60.3v.912h-60.3v53.763h60.3v.912h-60.3v53.763h60.3v.912h-60.3v53.763h60.3v.912h-60.3v53.763h60.3v.912h-60.3v53.763h60.3v.912h-60.3v53.763h60.3v.912h-60.3v53.763h60.3v.912h-60.3v53.763h60.3v.912h-60.3v53.763h60.3v.912h-60.3v53.764h60.3v.91h-60.3v53.76h60.3v.92h-60.3v53.76h60.3v.91h-60.3v53.76h60.3v.92h-60.3v53.76h60.3v.91h-60.3v54.22h-.91v-54.22h-59.83v54.22h-.91v-54.22h-59.84v54.22h-.92v-54.22h-59.84v54.22h-.91v-54.22h-59.83v54.22h-.91v-54.22h-59.84v54.22h-.92v-54.22h-59.84v54.22h-.91v-54.22h-59.83v54.22h-.91v-54.22h-59.844v54.22h-.912v-54.22h-59.839v54.22h-.911v-54.22h-59.838v54.22h-.911v-54.22h-59.839v54.22h-.912v-54.22h-59.839v54.22h-.911v-54.22h-59.838v54.22h-.911v-54.22h-59.839v54.22h-.912v-54.22h-59.839v54.22h-.911v-54.22h-59.838v54.22h-.911v-54.22h-59.839v54.22h-.912v-54.22h-59.839v54.22h-.911v-54.22h-59.838v54.22h-.911v-54.22h-59.839v54.22h-.912v-54.22h-59.839v54.22h-.911v-54.22h-59.838v54.22h-.912v-54.22h-60.294v-.91h60.294v-53.76h-60.294v-.92h60.294v-53.76h-60.294v-.91h60.294v-53.76h-60.294v-.92h60.294v-53.76h-60.294v-.91h60.294v-53.764h-60.294v-.912h60.294v-53.763h-60.294v-.912h60.294v-53.763h-60.294v-.912h60.294v-53.763h-60.294v-.912h60.294v-53.763h-60.294v-.912h60.294v-53.763h-60.294v-.912h60.294v-53.763h-60.294v-.912h60.294v-53.763h-60.294v-.912h60.294v-53.763h-60.294v-.912h60.294v-53.763h-60.294v-.912h60.294v-53.763h-60.294v-.912h60.294v-53.763h-60.294v-.912zm.912 766.361v53.76h59.838v-53.76zm59.838-.91h-59.838v-53.76h59.838zm.911.91v53.76h59.839v-53.76zm59.839-.91h-59.839v-53.76h59.839zm.912.91v53.76h59.839v-53.76zm59.839-.91h-59.839v-53.76h59.839zm.911.91v53.76h59.838v-53.76zm59.838-.91h-59.838v-53.76h59.838zm.911.91v53.76h59.839v-53.76zm59.839-.91h-59.839v-53.76h59.839zm.912.91v53.76h59.839v-53.76zm59.839-.91h-59.839v-53.76h59.839zm.911.91v53.76h59.838v-53.76zm59.838-.91h-59.838v-53.76h59.838zm.911.91v53.76h59.839v-53.76zm59.839-.91h-59.839v-53.76h59.839zm.912.91v53.76h59.839v-53.76zm59.839-.91h-59.839v-53.76h59.839zm.911.91v53.76h59.838v-53.76zm59.838-.91h-59.838v-53.76h59.838zm.911.91v53.76h59.839v-53.76zm59.839-.91h-59.839v-53.76h59.839zm.912.91v53.76h59.839v-53.76zm59.839-.91h-59.839v-53.76h59.839zm.911.91v53.76h59.838v-53.76zm59.838-.91h-59.838v-53.76h59.838zm.911.91v53.76h59.839v-53.76zm59.839-.91h-59.839v-53.76h59.839zm.912.91v53.76h59.844v-53.76zm59.844-.91h-59.844v-53.76h59.844zm.91.91v53.76h59.83v-53.76zm59.83-.91h-59.83v-53.76h59.83zm.91.91v53.76h59.84v-53.76zm59.84-.91h-59.84v-53.76h59.84zm.92.91v53.76h59.84v-53.76zm59.84-.91h-59.84v-53.76h59.84zm.91.91v53.76h59.83v-53.76zm59.83-.91h-59.83v-53.76h59.83zm.91.91v53.76h59.84v-53.76zm59.84-.91h-59.84v-53.76h59.84zm.92.91v53.76h59.84v-53.76zm59.84-.91h-59.84v-53.76h59.84zm.91.91v53.76h59.83v-53.76zm59.83-.91h-59.83v-53.76h59.83zm0-381.814v53.763h-59.83v-53.763zm-60.74 0v53.763h-59.84v-53.763zm0 54.675h-59.84v53.763h59.84zm-60.76-54.675v53.763h-59.84v-53.763zm0 54.675h-59.84v53.763h59.84zm-60.75-54.675v53.763h-59.83v-53.763zm0 54.675h-59.83v53.763h59.83zm-60.74-54.675v53.763h-59.84v-53.763zm0 54.675h-59.84v53.763h59.84zm-60.76-54.675v53.763h-59.84v-53.763zm0 54.675h-59.84v53.763h59.84zm-60.75-54.675v53.763h-59.83v-53.763zm0 54.675h-59.83v53.763h59.83zm-60.74-54.675v53.763h-59.844v-53.763zm0 54.675h-59.844v53.763h59.844zm-60.756-54.675v53.763h-59.839v-53.763zm0 54.675h-59.839v53.763h59.839zm-60.75-54.675v53.763h-59.838v-53.763zm0 54.675h-59.838v53.763h59.838zm-60.749-54.675v53.763h-59.839v-53.763zm0 54.675h-59.839v53.763h59.839zm-60.751-54.675v53.763h-59.839v-53.763zm0 54.675h-59.839v53.763h59.839zm-60.75-54.675v53.763h-59.838v-53.763zm0 54.675h-59.838v53.763h59.838zm-60.749-54.675v53.763h-59.839v-53.763zm0 54.675h-59.839v53.763h59.839zm-60.751-54.675v53.763h-59.839v-53.763zm0 54.675h-59.839v53.763h59.839zm-60.75-54.675v53.763h-59.838v-53.763zm0 54.675h-59.838v53.763h59.838zm-60.749-54.675v53.763h-59.839v-53.763zm0 54.675h-59.839v53.763h59.839zm-60.751-54.675v53.763h-59.839v-53.763zm0 54.675h-59.839v53.763h59.839zm-60.75-54.675v53.763h-59.838v-53.763zm0 54.675h-59.838v53.763h59.838zm-60.749-54.675v53.763h-59.839v-53.763zm0 54.675h-59.839v53.763h59.839zm-60.751-54.675v53.763h-59.839v-53.763zm0 54.675h-59.839v53.763h59.839zm-60.75-54.675v53.763h-59.838v-53.763zm0 54.675h-59.838v53.763h59.838zm1275.746 0h-59.83v53.763h59.83zm-1335.584-437.4v53.763h59.838v-53.763zm59.838-.912h-59.838v-53.763h59.838zm.911.912v53.763h59.839v-53.763zm59.839-.912h-59.839v-53.763h59.839zm.912.912v53.763h59.839v-53.763zm59.839-.912h-59.839v-53.763h59.839zm.911.912v53.763h59.838v-53.763zm59.838-.912h-59.838v-53.763h59.838zm.911.912v53.763h59.839v-53.763zm59.839-.912h-59.839v-53.763h59.839zm.912.912v53.763h59.839v-53.763zm59.839-.912h-59.839v-53.763h59.839zm.911.912v53.763h59.838v-53.763zm59.838-.912h-59.838v-53.763h59.838zm.911.912v53.763h59.839v-53.763zm59.839-.912h-59.839v-53.763h59.839zm.912.912v53.763h59.839v-53.763zm59.839-.912h-59.839v-53.763h59.839zm.911.912v53.763h59.838v-53.763zm59.838-.912h-59.838v-53.763h59.838zm.911.912v53.763h59.839v-53.763zm59.839-.912h-59.839v-53.763h59.839zm.912.912v53.763h59.839v-53.763zm59.839-.912h-59.839v-53.763h59.839zm.911.912v53.763h59.838v-53.763zm59.838-.912h-59.838v-53.763h59.838zm.911.912v53.763h59.839v-53.763zm59.839-.912h-59.839v-53.763h59.839zm.912.912v53.763h59.844v-53.763zm59.844-.912h-59.844v-53.763h59.844zm.91.912v53.763h59.83v-53.763zm59.83-.912h-59.83v-53.763h59.83zm.91.912v53.763h59.84v-53.763zm59.84-.912h-59.84v-53.763h59.84zm.92.912v53.763h59.84v-53.763zm59.84-.912h-59.84v-53.763h59.84zm.91.912v53.763h59.83v-53.763zm59.83-.912h-59.83v-53.763h59.83zm.91.912v53.763h59.84v-53.763zm59.84-.912h-59.84v-53.763h59.84zm.92.912v53.763h59.84v-53.763zm59.84-.912h-59.84v-53.763h59.84zm.91.912v53.763h59.83v-53.763zm59.83-.912h-59.83v-53.763h59.83zm0 821.041v53.76h-59.83v-53.76zm-60.74 0v53.76h-59.84v-53.76zm-60.76 0v53.76h-59.84v-53.76zm-60.75 0v53.76h-59.83v-53.76zm-60.74 0v53.76h-59.84v-53.76zm-60.76 0v53.76h-59.84v-53.76zm-60.75 0v53.76h-59.83v-53.76zm-60.74 0v53.76h-59.844v-53.76zm-60.756 0v53.76h-59.839v-53.76zm-60.75 0v53.76h-59.838v-53.76zm-60.749 0v53.76h-59.839v-53.76zm-60.751 0v53.76h-59.839v-53.76zm-60.75 0v53.76h-59.838v-53.76zm-60.749 0v53.76h-59.839v-53.76zm-60.751 0v53.76h-59.839v-53.76zm-60.75 0v53.76h-59.838v-53.76zm-60.749 0v53.76h-59.839v-53.76zm-60.751 0v53.76h-59.839v-53.76zm-60.75 0v53.76h-59.838v-53.76zm-60.749 0v53.76h-59.839v-53.76zm-60.751 0v53.76h-59.839v-53.76zm-60.75 0v53.76h-59.838v-53.76zm1275.746-328.054v53.763h-59.83v-53.763zm-60.74 0v53.763h-59.84v-53.763zm0 54.675h-59.84v53.763h59.84zm-60.76-54.675v53.763h-59.84v-53.763zm0 54.675h-59.84v53.763h59.84zm-60.75-54.675v53.763h-59.83v-53.763zm0 54.675h-59.83v53.763h59.83zm-60.74-54.675v53.763h-59.84v-53.763zm0 54.675h-59.84v53.763h59.84zm-60.76-54.675v53.763h-59.84v-53.763zm0 54.675h-59.84v53.763h59.84zm-60.75-54.675v53.763h-59.83v-53.763zm0 54.675h-59.83v53.763h59.83zm-60.74-54.675v53.763h-59.844v-53.763zm0 54.675h-59.844v53.763h59.844zm-60.756-54.675v53.763h-59.839v-53.763zm0 54.675h-59.839v53.763h59.839zm-60.75-54.675v53.763h-59.838v-53.763zm0 54.675h-59.838v53.763h59.838zm-60.749-54.675v53.763h-59.839v-53.763zm0 54.675h-59.839v53.763h59.839zm-60.751-54.675v53.763h-59.839v-53.763zm0 54.675h-59.839v53.763h59.839zm-60.75-54.675v53.763h-59.838v-53.763zm0 54.675h-59.838v53.763h59.838zm-60.749-54.675v53.763h-59.839v-53.763zm0 54.675h-59.839v53.763h59.839zm-60.751-54.675v53.763h-59.839v-53.763zm0 54.675h-59.839v53.763h59.839zm-60.75-54.675v53.763h-59.838v-53.763zm0 54.675h-59.838v53.763h59.838zm-60.749-54.675v53.763h-59.839v-53.763zm0 54.675h-59.839v53.763h59.839zm-60.751-54.675v53.763h-59.839v-53.763zm0 54.675h-59.839v53.763h59.839zm-60.75-54.675v53.763h-59.838v-53.763zm0 54.675h-59.838v53.763h59.838zm-60.749-54.675v53.763h-59.839v-53.763zm0 54.675h-59.839v53.763h59.839zm-60.751-54.675v53.763h-59.839v-53.763zm0 54.675h-59.839v53.763h59.839zm-60.75-54.675v53.763h-59.838v-53.763zm0 54.675h-59.838v53.763h59.838zm1275.746 0h-59.83v53.763h59.83zm-1335.584-328.05v53.763h59.838v-53.763zm59.838-.912h-59.838v-53.763h59.838zm.911.912v53.763h59.839v-53.763zm59.839-.912h-59.839v-53.763h59.839zm.912.912v53.763h59.839v-53.763zm59.839-.912h-59.839v-53.763h59.839zm.911.912v53.763h59.838v-53.763zm59.838-.912h-59.838v-53.763h59.838zm.911.912v53.763h59.839v-53.763zm59.839-.912h-59.839v-53.763h59.839zm.912.912v53.763h59.839v-53.763zm59.839-.912h-59.839v-53.763h59.839zm.911.912v53.763h59.838v-53.763zm59.838-.912h-59.838v-53.763h59.838zm.911.912v53.763h59.839v-53.763zm59.839-.912h-59.839v-53.763h59.839zm.912.912v53.763h59.839v-53.763zm59.839-.912h-59.839v-53.763h59.839zm.911.912v53.763h59.838v-53.763zm59.838-.912h-59.838v-53.763h59.838zm.911.912v53.763h59.839v-53.763zm59.839-.912h-59.839v-53.763h59.839zm.912.912v53.763h59.839v-53.763zm59.839-.912h-59.839v-53.763h59.839zm.911.912v53.763h59.838v-53.763zm59.838-.912h-59.838v-53.763h59.838zm.911.912v53.763h59.839v-53.763zm59.839-.912h-59.839v-53.763h59.839zm.912.912v53.763h59.844v-53.763zm59.844-.912h-59.844v-53.763h59.844zm.91.912v53.763h59.83v-53.763zm59.83-.912h-59.83v-53.763h59.83zm.91.912v53.763h59.84v-53.763zm59.84-.912h-59.84v-53.763h59.84zm.92.912v53.763h59.84v-53.763zm59.84-.912h-59.84v-53.763h59.84zm.91.912v53.763h59.83v-53.763zm59.83-.912h-59.83v-53.763h59.83zm.91.912v53.763h59.84v-53.763zm59.84-.912h-59.84v-53.763h59.84zm.92.912v53.763h59.84v-53.763zm59.84-.912h-59.84v-53.763h59.84zm.91.912v53.763h59.83v-53.763zm59.83-.912h-59.83v-53.763h59.83zm-1335.584-382.725v-53.763h59.838v53.763zm60.749 0v-53.763h59.839v53.763zm0-54.675h59.839v-53.763h-59.839zm60.751 54.675v-53.763h59.839v53.763zm0-54.675h59.839v-53.763h-59.839zm60.75 54.675v-53.763h59.838v53.763zm0-54.675h59.838v-53.763h-59.838zm60.749 54.675v-53.763h59.839v53.763zm0-54.675h59.839v-53.763h-59.839zm60.751 54.675v-53.763h59.839v53.763zm0-54.675h59.839v-53.763h-59.839zm60.75 54.675v-53.763h59.838v53.763zm0-54.675h59.838v-53.763h-59.838zm60.749 54.675v-53.763h59.839v53.763zm0-54.675h59.839v-53.763h-59.839zm60.751 54.675v-53.763h59.839v53.763zm0-54.675h59.839v-53.763h-59.839zm60.75 54.675v-53.763h59.838v53.763zm0-54.675h59.838v-53.763h-59.838zm60.749 54.675v-53.763h59.839v53.763zm0-54.675h59.839v-53.763h-59.839zm60.751 54.675v-53.763h59.839v53.763zm0-54.675h59.839v-53.763h-59.839zm60.75 54.675v-53.763h59.838v53.763zm0-54.675h59.838v-53.763h-59.838zm60.749 54.675v-53.763h59.839v53.763zm0-54.675h59.839v-53.763h-59.839zm60.751 54.675v-53.763h59.844v53.763zm0-54.675h59.844v-53.763h-59.844zm60.754 54.675v-53.763h59.83v53.763zm0-54.675h59.83v-53.763h-59.83zm60.74 54.675v-53.763h59.84v53.763zm0-54.675h59.84v-53.763h-59.84zm60.76 54.675v-53.763h59.84v53.763zm0-54.675h59.84v-53.763h-59.84zm60.75 54.675v-53.763h59.83v53.763zm0-54.675h59.83v-53.763h-59.83zm60.74 54.675v-53.763h59.84v53.763zm0-54.675h59.84v-53.763h-59.84zm60.76 54.675v-53.763h59.84v53.763zm0-54.675h59.84v-53.763h-59.84zm60.75 54.675v-53.763h59.83v53.763zm0-54.675h59.83v-53.763h-59.83zm-1275.754 0h59.838v-53.763h-59.838zm0 875.711v53.76h59.838v-53.76zm59.838-.91h-59.838v-53.764h59.838zm.911.91v53.76h59.839v-53.76zm59.839-.91h-59.839v-53.764h59.839zm.912.91v53.76h59.839v-53.76zm59.839-.91h-59.839v-53.764h59.839zm.911.91v53.76h59.838v-53.76zm59.838-.91h-59.838v-53.764h59.838zm.911.91v53.76h59.839v-53.76zm59.839-.91h-59.839v-53.764h59.839zm.912.91v53.76h59.839v-53.76zm59.839-.91h-59.839v-53.764h59.839zm.911.91v53.76h59.838v-53.76zm59.838-.91h-59.838v-53.764h59.838zm.911.91v53.76h59.839v-53.76zm59.839-.91h-59.839v-53.764h59.839zm.912.91v53.76h59.839v-53.76zm59.839-.91h-59.839v-53.764h59.839zm.911.91v53.76h59.838v-53.76zm59.838-.91h-59.838v-53.764h59.838zm.911.91v53.76h59.839v-53.76zm59.839-.91h-59.839v-53.764h59.839zm.912.91v53.76h59.839v-53.76zm59.839-.91h-59.839v-53.764h59.839zm.911.91v53.76h59.838v-53.76zm59.838-.91h-59.838v-53.764h59.838zm.911.91v53.76h59.839v-53.76zm59.839-.91h-59.839v-53.764h59.839zm.912.91v53.76h59.844v-53.76zm59.844-.91h-59.844v-53.764h59.844zm.91.91v53.76h59.83v-53.76zm59.83-.91h-59.83v-53.764h59.83zm.91.91v53.76h59.84v-53.76zm59.84-.91h-59.84v-53.764h59.84zm.92.91v53.76h59.84v-53.76zm59.84-.91h-59.84v-53.764h59.84zm.91.91v53.76h59.83v-53.76zm59.83-.91h-59.83v-53.764h59.83zm.91.91v53.76h59.84v-53.76zm59.84-.91h-59.84v-53.764h59.84zm.92.91v53.76h59.84v-53.76zm59.84-.91h-59.84v-53.764h59.84zm.91.91v53.76h59.83v-53.76zm59.83-.91h-59.83v-53.764h59.83zm0-381.814v53.763h-59.83v-53.763zm-60.74 0v53.763h-59.84v-53.763zm0 54.675h-59.84v53.763h59.84zm-60.76-54.675v53.763h-59.84v-53.763zm0 54.675h-59.84v53.763h59.84zm-60.75-54.675v53.763h-59.83v-53.763zm0 54.675h-59.83v53.763h59.83zm-60.74-54.675v53.763h-59.84v-53.763zm0 54.675h-59.84v53.763h59.84zm-60.76-54.675v53.763h-59.84v-53.763zm0 54.675h-59.84v53.763h59.84zm-60.75-54.675v53.763h-59.83v-53.763zm0 54.675h-59.83v53.763h59.83zm-60.74-54.675v53.763h-59.844v-53.763zm0 54.675h-59.844v53.763h59.844zm-60.756-54.675v53.763h-59.839v-53.763zm0 54.675h-59.839v53.763h59.839zm-60.75-54.675v53.763h-59.838v-53.763zm0 54.675h-59.838v53.763h59.838zm-60.749-54.675v53.763h-59.839v-53.763zm0 54.675h-59.839v53.763h59.839zm-60.751-54.675v53.763h-59.839v-53.763zm0 54.675h-59.839v53.763h59.839zm-60.75-54.675v53.763h-59.838v-53.763zm0 54.675h-59.838v53.763h59.838zm-60.749-54.675v53.763h-59.839v-53.763zm0 54.675h-59.839v53.763h59.839zm-60.751-54.675v53.763h-59.839v-53.763zm0 54.675h-59.839v53.763h59.839zm-60.75-54.675v53.763h-59.838v-53.763zm0 54.675h-59.838v53.763h59.838zm-60.749-54.675v53.763h-59.839v-53.763zm0 54.675h-59.839v53.763h59.839zm-60.751-54.675v53.763h-59.839v-53.763zm0 54.675h-59.839v53.763h59.839zm-60.75-54.675v53.763h-59.838v-53.763zm0 54.675h-59.838v53.763h59.838zm-60.749-54.675v53.763h-59.839v-53.763zm0 54.675h-59.839v53.763h59.839zm-60.751-54.675v53.763h-59.839v-53.763zm0 54.675h-59.839v53.763h59.839zm-60.75-54.675v53.763h-59.838v-53.763zm0 54.675h-59.838v53.763h59.838zm1275.746 0h-59.83v53.763h59.83zm0-438.312v-53.763h-59.83v53.763zm-59.83.912h59.83v53.763h-59.83zm-.91-.912v-53.763h-59.84v53.763zm-59.84.912h59.84v53.763h-59.84zm-.92-.912v-53.763h-59.84v53.763zm-59.84.912h59.84v53.763h-59.84zm-.91-.912v-53.763h-59.83v53.763zm-59.83.912h59.83v53.763h-59.83zm-.91-.912v-53.763h-59.84v53.763zm-59.84.912h59.84v53.763h-59.84zm-.92-.912v-53.763h-59.84v53.763zm-59.84.912h59.84v53.763h-59.84zm-.91-.912v-53.763h-59.83v53.763zm-59.83.912h59.83v53.763h-59.83zm-.91-.912v-53.763h-59.844v53.763zm-59.844.912h59.844v53.763h-59.844zm-.912-.912v-53.763h-59.839v53.763zm-59.839.912h59.839v53.763h-59.839zm-.911-.912v-53.763h-59.838v53.763zm-59.838.912h59.838v53.763h-59.838zm-.911-.912v-53.763h-59.839v53.763zm-59.839.912h59.839v53.763h-59.839zm-.912-.912v-53.763h-59.839v53.763zm-59.839.912h59.839v53.763h-59.839zm-.911-.912v-53.763h-59.838v53.763zm-59.838.912h59.838v53.763h-59.838zm-.911-.912v-53.763h-59.839v53.763zm-59.839.912h59.839v53.763h-59.839zm-.912-.912v-53.763h-59.839v53.763zm-59.839.912h59.839v53.763h-59.839zm-.911-.912v-53.763h-59.838v53.763zm-59.838.912h59.838v53.763h-59.838zm-.911-.912v-53.763h-59.839v53.763zm-59.839.912h59.839v53.763h-59.839zm-.912-.912v-53.763h-59.839v53.763zm-59.839.912h59.839v53.763h-59.839zm-.911-.912v-53.763h-59.838v53.763zm-59.838.912h59.838v53.763h-59.838zm-.911-.912v-53.763h-59.839v53.763zm-59.839.912h59.839v53.763h-59.839zm-.912-.912v-53.763h-59.839v53.763zm-59.839.912h59.839v53.763h-59.839zm-.911-.912v-53.763h-59.838v53.763zm-59.838.912h59.838v53.763h-59.838zm1335.584 164.025v53.763h-59.83v-53.763zm-60.74 0v53.763h-59.84v-53.763zm0 54.675h-59.84v53.763h59.84zm-60.76-54.675v53.763h-59.84v-53.763zm0 54.675h-59.84v53.763h59.84zm-60.75-54.675v53.763h-59.83v-53.763zm0 54.675h-59.83v53.763h59.83zm-60.74-54.675v53.763h-59.84v-53.763zm0 54.675h-59.84v53.763h59.84zm-60.76-54.675v53.763h-59.84v-53.763zm0 54.675h-59.84v53.763h59.84zm-60.75-54.675v53.763h-59.83v-53.763zm0 54.675h-59.83v53.763h59.83zm-60.74-54.675v53.763h-59.844v-53.763zm0 54.675h-59.844v53.763h59.844zm-60.756-54.675v53.763h-59.839v-53.763zm0 54.675h-59.839v53.763h59.839zm-60.75-54.675v53.763h-59.838v-53.763zm0 54.675h-59.838v53.763h59.838zm-60.749-54.675v53.763h-59.839v-53.763zm0 54.675h-59.839v53.763h59.839zm-60.751-54.675v53.763h-59.839v-53.763zm0 54.675h-59.839v53.763h59.839zm-60.75-54.675v53.763h-59.838v-53.763zm0 54.675h-59.838v53.763h59.838zm-60.749-54.675v53.763h-59.839v-53.763zm0 54.675h-59.839v53.763h59.839zm-60.751-54.675v53.763h-59.839v-53.763zm0 54.675h-59.839v53.763h59.839zm-60.75-54.675v53.763h-59.838v-53.763zm0 54.675h-59.838v53.763h59.838zm-60.749-54.675v53.763h-59.839v-53.763zm0 54.675h-59.839v53.763h59.839zm-60.751-54.675v53.763h-59.839v-53.763zm0 54.675h-59.839v53.763h59.839zm-60.75-54.675v53.763h-59.838v-53.763zm0 54.675h-59.838v53.763h59.838zm-60.749-54.675v53.763h-59.839v-53.763zm0 54.675h-59.839v53.763h59.839zm-60.751-54.675v53.763h-59.839v-53.763zm0 54.675h-59.839v53.763h59.839zm-60.75-54.675v53.763h-59.838v-53.763zm0 54.675h-59.838v53.763h59.838zm1275.746 0h-59.83v53.763h59.83zm0-437.4004h-59.83v53.7634h59.83zm-60.74 0h-59.84v53.7634h59.84zm-60.76 0h-59.84v53.7634h59.84zm-60.75 0h-59.83v53.7634h59.83zm-60.74 0h-59.84v53.7634h59.84zm-60.76 0h-59.84v53.7634h59.84zm-60.75 0h-59.83v53.7634h59.83zm-60.74 0h-59.844v53.7634h59.844zm-60.756 0h-59.839v53.7634h59.839zm-60.75 0h-59.838v53.7634h59.838zm-60.749 0h-59.839v53.7634h59.839zm-60.751 0h-59.839v53.7634h59.839zm-60.75 0h-59.838v53.7634h59.838zm-60.749 0h-59.839v53.7634h59.839zm-60.751 0h-59.839v53.7634h59.839zm-60.75 0h-59.838v53.7634h59.838zm-60.749 0h-59.839v53.7634h59.839zm-60.751 0h-59.839v53.7634h59.839zm-60.75 0-59.838-.0001v53.7635h59.838zm-60.749-.0001h-59.839v53.7635h59.839zm-60.751 0h-59.839v53.7635h59.839zm-60.75 0h-59.838v53.7635h59.838z" fill="#262626" fill-rule="evenodd"/></g><g filter="url(#a)"><rect fill="url(#c)" fill-opacity=".75" height="848.843" rx="65.9661" transform="matrix(.91584209 -.40153861 .40153861 .91584209 83.494416 92.324938)" width="131.932" x="262" y="-153.024"/></g></g></svg>