<svg width="132" height="123" viewBox="0 0 132 123" fill="none" xmlns="http://www.w3.org/2000/svg">
<path d="M31.6581 118.567C36.7104 120.601 42.1915 121.807 47.9467 122.008C55.7355 122.28 63.1422 120.67 69.7635 117.611C61.8234 114.492 54.6322 109.929 48.4949 104.257C44.5166 110.627 38.6325 115.658 31.6581 118.567Z" fill="#FF9100"/>
<path d="M48.4923 104.259C34.4827 91.302 25.9838 72.5484 26.7021 51.979C26.7254 51.311 26.7607 50.6435 26.8019 49.9762C24.2928 49.3273 21.6734 48.9313 18.9777 48.8371C15.1191 48.7024 11.3823 49.181 7.85452 50.1744C4.11472 56.7255 1.85787 64.242 1.57672 72.2932C0.851127 93.0713 13.4253 111.227 31.6556 118.569C38.63 115.66 44.5139 110.635 48.4923 104.259Z" fill="#FFC400"/>
<path d="M48.4937 104.258C51.7509 99.0459 53.7258 92.9348 53.9557 86.3506C54.5605 69.0316 42.9175 54.133 26.8033 49.9757C26.762 50.643 26.7268 51.3105 26.7035 51.9785C25.9852 72.5479 34.484 91.3015 48.4937 104.258Z" fill="#FF9100"/>
<path d="M52.1543 1.29291C42.9766 8.64534 35.7294 18.3402 31.3447 29.5084C28.8344 35.9054 27.2569 42.7768 26.7964 49.9798C42.9106 54.1372 54.5536 69.0358 53.9488 86.3548C53.7189 92.939 51.7382 99.044 48.4868 104.263C54.6239 109.941 61.8153 114.497 69.7555 117.616C85.693 110.249 97.0006 94.3967 97.6554 75.6462C98.0796 63.4978 93.4121 52.6704 86.8167 43.5311C79.8515 33.8654 52.1543 1.29291 52.1543 1.29291Z" fill="#DD2C00"/>
<g filter="url(#filter0_d_47_3687)">
<circle cx="100" cy="90" r="30" fill="white"/>
<path fill-rule="evenodd" clip-rule="evenodd" d="M86.5 94.5H113.5V100.503C113.5 100.896 113.423 101.286 113.273 101.649C113.123 102.013 112.903 102.343 112.625 102.621C112.347 102.9 112.017 103.121 111.653 103.271C111.29 103.422 110.901 103.5 110.507 103.5H89.4925C88.6985 103.498 87.9376 103.182 87.3766 102.62C86.8157 102.058 86.5004 101.297 86.5 100.503V94.5ZM86.5 79.488C86.5 77.838 87.8395 76.5 89.4925 76.5H110.507C112.16 76.5 113.5 77.85 113.5 79.488V90.012C113.5 91.662 112.16 93 110.507 93H89.4925C87.8395 93 86.5 91.65 86.5 90.012V79.488ZM89.5 79.5H110.5V84H89.5V79.5ZM89.5 87.7575C89.5 87.339 89.821 87 90.2575 87H91.7425C92.161 87 92.5 87.321 92.5 87.7575V89.2425C92.5016 89.3424 92.4831 89.4417 92.4456 89.5343C92.4081 89.6269 92.3524 89.7111 92.2817 89.7817C92.2111 89.8524 92.1269 89.9081 92.0343 89.9456C91.9417 89.9831 91.8424 90.0016 91.7425 90H90.2575C90.1576 90.0016 90.0583 89.9831 89.9657 89.9456C89.8731 89.9081 89.7889 89.8524 89.7183 89.7817C89.6476 89.7111 89.5919 89.6269 89.5544 89.5343C89.5169 89.4417 89.4984 89.3424 89.5 89.2425V87.7575ZM89.5 98.2575C89.5 97.839 89.821 97.5 90.2575 97.5H91.7425C92.161 97.5 92.5 97.821 92.5 98.2575V99.7425C92.5016 99.8424 92.4831 99.9417 92.4456 100.034C92.4081 100.127 92.3524 100.211 92.2817 100.282C92.2111 100.352 92.1269 100.408 92.0343 100.446C91.9417 100.483 91.8424 100.502 91.7425 100.5H90.2575C90.1576 100.502 90.0583 100.483 89.9657 100.446C89.8731 100.408 89.7889 100.352 89.7183 100.282C89.6476 100.211 89.5919 100.127 89.5544 100.034C89.5169 99.9417 89.4984 99.8424 89.5 99.7425V98.2575Z" fill="#1F1F1F"/>
</g>
<defs>
<filter id="filter0_d_47_3687" x="68" y="58.6704" width="64" height="64" filterUnits="userSpaceOnUse" color-interpolation-filters="sRGB">
<feFlood flood-opacity="0" result="BackgroundImageFix"/>
<feColorMatrix in="SourceAlpha" type="matrix" values="0 0 0 0 0 0 0 0 0 0 0 0 0 0 0 0 0 0 127 0" result="hardAlpha"/>
<feOffset dy="0.670408"/>
<feGaussianBlur stdDeviation="1"/>
<feComposite in2="hardAlpha" operator="out"/>
<feColorMatrix type="matrix" values="0 0 0 0 0 0 0 0 0 0 0 0 0 0 0 0 0 0 0.3 0"/>
<feBlend mode="normal" in2="BackgroundImageFix" result="effect1_dropShadow_47_3687"/>
<feBlend mode="normal" in="SourceGraphic" in2="effect1_dropShadow_47_3687" result="shape"/>
</filter>
</defs>
</svg>
